<svg width="106" height="28" viewBox="0 0 106 28" fill="none" xmlns="http://www.w3.org/2000/svg"><g id="envato"><g id="Group"><path id="Vector" d="M29.5065 8.69727C33.1023 8.69727 36.6193 10.8157 36.6193 15.5402C36.6193 15.9151 36.6006 16.4963 36.5594 16.905C36.5481 16.9987 36.4694 17.07 36.3756 17.07H26.2894C26.5856 18.761 27.7667 19.8596 29.619 19.8596C30.8488 19.8596 31.6325 19.1809 32.0562 18.371C32.1087 18.2698 32.2249 18.2173 32.3374 18.2398L36.1094 19.061C36.2256 19.0872 36.2856 19.2109 36.2369 19.3197C35.3558 21.3182 33.3498 23.2979 29.589 23.2979C24.6508 23.2979 22.0187 20.0771 22.0187 15.9976C22.0187 11.9181 24.7558 8.69727 29.5065 8.69727ZM32.4049 14.494C32.2174 12.8855 31.145 12.0231 29.5852 12.0231C27.5455 12.0231 26.6868 13.0692 26.3644 14.494H32.4049Z" fill="#262626"/><path id="Vector_2" d="M37.9092 22.683V9.31219C37.9092 9.21095 37.9917 9.12846 38.0929 9.12846H42.0187C42.1199 9.12846 42.2024 9.21095 42.2024 9.31219V10.8982C43.1435 9.42092 44.5383 8.69727 46.3344 8.69727C48.9628 8.69727 51.22 10.497 51.22 14.5203V22.683C51.22 22.7842 51.1375 22.8667 51.0363 22.8667H47.1105C47.0093 22.8667 46.9268 22.7842 46.9268 22.683V15.139C46.9268 13.3392 45.9857 12.3493 44.6171 12.3493C43.1398 12.3493 42.2024 13.3167 42.2024 15.5177V22.6868C42.2024 22.788 42.1199 22.8705 42.0187 22.8705H38.0929C37.9917 22.8705 37.9092 22.788 37.9092 22.6868V22.683Z" fill="#262626"/><path id="Vector_3" d="M51.4824 9.12476H55.6444C55.7268 9.12476 55.7981 9.17725 55.8206 9.25599L58.9477 19.6197L62.0748 9.25599C62.0973 9.17725 62.1685 9.12476 62.251 9.12476H66.413C66.5405 9.12476 66.6305 9.25224 66.5855 9.37222L61.7973 22.6943C61.7598 22.7955 61.6623 22.8668 61.5536 22.8668H56.3343C56.2255 22.8668 56.128 22.7993 56.0905 22.6943L51.3024 9.37222C51.2574 9.25224 51.3474 9.12476 51.4749 9.12476H51.4824Z" fill="#262626"/><path id="Vector_4" d="M75.697 22.6829V20.5869C75.0258 21.9818 73.5223 23.2978 71.1863 23.2978C68.4754 23.2978 66.4619 21.5806 66.4619 19.1659C66.4619 16.6162 68.153 14.7114 71.8575 14.7114H74.006C75.1871 14.7114 75.5095 13.8528 75.4008 13.2904C75.2396 12.323 74.3809 11.813 73.1736 11.813C71.6475 11.813 70.7251 12.6567 70.6089 13.8153C70.5976 13.9203 70.5002 13.9953 70.3952 13.9803L66.7544 13.3728C66.6531 13.3578 66.5819 13.2604 66.6007 13.1591C67.1931 9.99077 70.1964 8.70093 73.2786 8.70093C76.3607 8.70093 79.7727 9.45083 79.7727 15.1426V22.6867C79.7727 22.7879 79.6903 22.8704 79.589 22.8704H75.877C75.7757 22.8704 75.6933 22.7879 75.6933 22.6867L75.697 22.6829ZM72.4499 20.1857C74.1672 20.1857 75.3483 18.8959 75.4833 17.2873H72.8811C71.2988 17.2873 70.7326 17.9323 70.7626 18.8172C70.7889 19.7583 71.5425 20.1857 72.4537 20.1857H72.4499Z" fill="#262626"/><path id="Vector_5" d="M80.4213 12.3756V9.30844C80.4213 9.2072 80.5038 9.12471 80.605 9.12471H82.1385C82.851 9.12471 83.4284 8.54728 83.4284 7.83487V5.44642C83.4284 5.34518 83.5109 5.2627 83.6121 5.2627H87.1067C87.2079 5.2627 87.2904 5.34518 87.2904 5.44642V9.12471H90.11C90.2113 9.12471 90.2938 9.2072 90.2938 9.30844V12.3756C90.2938 12.4768 90.2113 12.5593 90.11 12.5593H87.2904V17.5237C87.2904 19.1397 88.6665 19.7996 90.1025 19.2897C90.1963 19.2559 90.2975 19.3272 90.2975 19.4284V22.6643C90.2975 22.7842 90.2188 22.8892 90.1025 22.9155C89.7313 23.0017 89.2177 23.0805 88.6065 23.0805C85.2769 23.0805 82.9972 21.9518 82.9972 17.1225V12.5593H80.605C80.5038 12.5593 80.4213 12.4768 80.4213 12.3756Z" fill="#262626"/><path id="Vector_6" d="M105.974 15.9976C105.974 20.0246 103.129 23.2979 98.4603 23.2979C93.7922 23.2979 90.9463 20.0246 90.9463 15.9976C90.9463 11.9706 93.7922 8.69727 98.4603 8.69727C103.129 8.69727 105.974 11.9706 105.974 15.9976ZM101.677 15.9976C101.677 14.0103 100.579 12.3493 98.4566 12.3493C96.3344 12.3493 95.2358 14.0141 95.2358 15.9976C95.2358 17.9811 96.3344 19.6459 98.4566 19.6459C100.579 19.6459 101.677 17.9811 101.677 15.9976Z" fill="#262626"/></g><g id="Group_2"><path id="Vector_7" d="M10.4665 28C11.0588 28 11.5389 27.5198 11.5389 26.9276C11.5389 26.3353 11.0588 25.8552 10.4665 25.8552C9.87428 25.8552 9.39417 26.3353 9.39417 26.9276C9.39417 27.5198 9.87428 28 10.4665 28Z" fill="#262626"/><path id="Vector_8" d="M16.6306 19.6161L10.5826 20.2647C10.4701 20.276 10.4139 20.1372 10.5039 20.066L16.4206 15.4578C16.8031 15.1429 17.0506 14.6554 16.9456 14.1305C16.8406 13.3281 16.1769 12.8032 15.337 12.9081L8.90659 13.8493C8.7941 13.8643 8.73411 13.7218 8.8241 13.6506L15.1983 8.78367C16.4544 7.80504 16.5594 5.88528 15.4083 4.76792C14.3622 3.7218 12.6824 3.75555 11.6362 4.80167L1.36629 15.2516C0.983835 15.6715 0.807607 16.2302 0.912594 16.8227C1.08882 17.7675 2.02995 18.3937 2.97483 18.2212L8.51289 17.0926C8.63287 17.0664 8.69662 17.2276 8.59538 17.2951L2.45365 21.2284C1.685 21.7158 1.33629 22.5894 1.58001 23.4631C1.82373 24.6142 2.97858 25.2778 4.09594 25.0004L13.2785 22.7394C13.3835 22.7132 13.4585 22.8331 13.391 22.9156L11.9587 24.6854C11.5763 25.1729 12.2024 25.8365 12.7274 25.4541L17.4443 21.5771C18.2842 20.8796 17.7255 19.5148 16.6419 19.6198L16.6306 19.6161Z" fill="#262626"/></g></g></svg>