<svg xmlns="http://www.w3.org/2000/svg" width="48" height="48" viewBox="0 0 48 49" fill="none"><path d="M0 24.167c0-13.255 10.745-24 24-24s24 10.745 24 24-10.745 24-24 24-24-10.745-24-24z" fill="#5D2DE6" fill-opacity="0.16"/><path d="M29.793 22.477c.345 0 .65-.116.87-.336.221-.22.337-.526.337-.87v-2.897c0-.345-.116-.65-.336-.871-.22-.22-.526-.336-.87-.336H18.206c-.345 0-.65.116-.87.336-.221.22-.337.526-.337.87v2.897c0 .345.116.65.336.87.22.221.526.337.87.337.345 0 .651-.116.872-.336.22-.22.336-.526.336-.87v-1.69h3.38v9.172h-1.69c-.345 0-.65.116-.871.336-.22.22-.336.526-.336.87 0 .345.115.651.336.872.22.22.526.336.87.336h5.794c.344 0 .65-.116.87-.337.22-.22.336-.526.336-.87 0-.345-.115-.65-.336-.87-.22-.221-.526-.337-.87-.337h-1.69v-9.172h3.38v1.69c0 .344.115.65.335.87.22.22.527.336.871.336z" fill="#5D2DE6"/></svg>