<svg width="32" height="32" viewBox="0 0 32 32" fill="none" xmlns="http://www.w3.org/2000/svg"><rect width="32" height="32" rx="16" fill="#DFD5FA"/><path d="M16 19C19.3137 19 22 16.3137 22 13C22 9.68629 19.3137 7 16 7C12.6863 7 10 9.68629 10 13C10 16.3137 12.6863 19 16 19Z" stroke="#5D2DE6" stroke-width="1.5" stroke-miterlimit="10" stroke-linecap="round" stroke-linejoin="round"/><path d="M16 15C17.1046 15 18 14.1046 18 13C18 11.8954 17.1046 11 16 11C14.8954 11 14 11.8954 14 13C14 14.1046 14.8954 15 16 15Z" fill="#5D2DE6"/><path d="M20 18V24.8393L16 22.5536L12 24.8393L12 18" stroke="#5D2DE6" stroke-width="1.5" stroke-miterlimit="10" stroke-linecap="round" stroke-linejoin="round"/></svg>