<svg width="48" height="48" viewBox="0 0 48 48" fill="none" xmlns="http://www.w3.org/2000/svg"><path d="M0 24C0 10.7452 10.7452 0 24 0C37.2548 0 48 10.7452 48 24C48 37.2548 37.2548 48 24 48C10.7452 48 0 37.2548 0 24Z" fill="#5D2DE6" fill-opacity="0.16"/><path d="M28.4239 21.6027L23 21V17.5C23 16.6716 22.3284 16 21.5 16C20.6716 16 20 16.6716 20 17.5V25H19V23H18.5C17.6716 23 17 23.6716 17 24.5V26.3333C17 27.4152 17.3509 28.4678 18 29.3333L20 32H29L30.9661 25.4464C31.5043 23.6525 30.2853 21.8095 28.4239 21.6027Z" fill="#5D2DE6"/></svg>