<svg width="110" height="32" viewBox="0 0 110 32" fill="none" xmlns="http://www.w3.org/2000/svg"><g id="adplist"><path id="Vector" d="M14.2959 3.625C11.527 3.625 8.82021 4.44609 6.51792 5.98443C4.21564 7.52276 2.42122 9.70926 1.36159 12.2674C0.301965 14.8256 0.0247177 17.6405 0.564911 20.3563C1.1051 23.072 2.43847 25.5666 4.39641 27.5244C6.35434 29.4824 8.84891 30.8158 11.5646 31.356C14.2804 31.8962 17.0953 31.619 19.6534 30.5593C22.2117 29.4997 24.3982 27.7053 25.9365 25.403C27.4748 23.1007 28.2959 20.3939 28.2959 17.625C28.2959 13.9119 26.8209 10.351 24.1954 7.72551C21.5699 5.09999 18.0089 3.625 14.2959 3.625ZM14.2959 29.4712C11.953 29.4712 9.66263 28.7764 7.71454 27.4747C5.76644 26.173 4.2481 24.3229 3.35148 22.1583C2.45488 19.9937 2.22029 17.6119 2.67737 15.3139C3.13446 13.016 4.26269 10.9052 5.91941 9.2485C7.57613 7.5918 9.68691 6.46355 11.9848 6.00647C14.2828 5.54938 16.6646 5.78397 18.8292 6.68059C20.9938 7.57719 22.8439 9.09554 24.1456 11.0436C25.4473 12.9917 26.1421 15.282 26.1421 17.625C26.1421 20.7668 24.894 23.7799 22.6724 26.0015C20.4508 28.2231 17.4377 29.4712 14.2959 29.4712Z" fill="#262626"/><path id="Vector_2" d="M8.68637 17.3452C8.78649 17.4461 8.9056 17.5263 9.03683 17.5809C9.16807 17.6356 9.30883 17.6637 9.45099 17.6637C9.59316 17.6637 9.73392 17.6356 9.86516 17.5809C9.99638 17.5263 10.1155 17.4461 10.2156 17.3452L12.7464 14.8144C13.2219 14.332 13.5119 13.6973 13.5652 13.0221C13.6185 12.3468 13.4317 11.6744 13.0378 11.1234C12.6439 10.5724 12.0681 10.1781 11.4118 10.0102C10.7557 9.84218 10.0612 9.91125 9.45099 10.2052C8.83981 9.89311 8.13689 9.81082 7.47014 9.97328C6.80341 10.1357 6.21714 10.5322 5.81802 11.0904C5.41889 11.6487 5.23344 12.3316 5.29539 13.0151C5.35736 13.6985 5.6626 14.337 6.15561 14.8144L8.68637 17.3452ZM7.67407 12.2406C7.73943 12.1721 7.81798 12.1177 7.90498 12.0805C7.99197 12.0433 8.0856 12.0241 8.18022 12.0241C8.27484 12.0241 8.36848 12.0433 8.45547 12.0805C8.54247 12.1177 8.62101 12.1721 8.68637 12.2406C8.78649 12.3415 8.9056 12.4216 9.03683 12.4763C9.16807 12.531 9.30883 12.5591 9.45099 12.5591C9.59316 12.5591 9.73392 12.531 9.86516 12.4763C9.99638 12.4216 10.1155 12.3415 10.2156 12.2406C10.2817 12.1735 10.3605 12.1202 10.4474 12.0839C10.5343 12.0475 10.6275 12.0288 10.7217 12.0288C10.8159 12.0288 10.9092 12.0475 10.9961 12.0839C11.083 12.1202 11.1618 12.1735 11.2279 12.2406C11.2963 12.3059 11.3508 12.3845 11.388 12.4715C11.4252 12.5585 11.4444 12.6521 11.4444 12.7467C11.4444 12.8413 11.4252 12.935 11.388 13.022C11.3508 13.109 11.2963 13.1875 11.2279 13.2529L9.45099 15.0621L7.67407 13.3175C7.60566 13.2521 7.5512 13.1736 7.51399 13.0866C7.47679 12.9996 7.4576 12.9059 7.4576 12.8113C7.4576 12.7167 7.47679 12.6231 7.51399 12.5361C7.5512 12.4491 7.60566 12.3705 7.67407 12.3052V12.2406Z" fill="#262626"/><path id="Vector_3" d="M18.378 17.3452C18.4781 17.4461 18.5972 17.5263 18.7285 17.5809C18.8597 17.6356 19.0005 17.6637 19.1426 17.6637C19.2848 17.6637 19.4256 17.6356 19.5568 17.5809C19.6881 17.5263 19.8071 17.4461 19.9073 17.3452L22.438 14.8144C22.9135 14.332 23.2035 13.6973 23.2568 13.0221C23.3101 12.3468 23.1234 11.6744 22.7295 11.1234C22.3355 10.5724 21.7597 10.1781 21.1035 10.0102C20.4473 9.84218 19.7529 9.91125 19.1426 10.2052C18.5314 9.89311 17.8285 9.81082 17.1618 9.97328C16.495 10.1357 15.9088 10.5322 15.5096 11.0904C15.1105 11.6487 14.9251 12.3316 14.987 13.0151C15.049 13.6985 15.3543 14.337 15.8472 14.8144L18.378 17.3452ZM17.3657 12.2406C17.431 12.1721 17.5096 12.1177 17.5966 12.0805C17.6836 12.0433 17.7772 12.0241 17.8718 12.0241C17.9664 12.0241 18.0601 12.0433 18.1471 12.0805C18.2341 12.1177 18.3126 12.1721 18.378 12.2406C18.4781 12.3415 18.5972 12.4216 18.7285 12.4763C18.8597 12.531 19.0005 12.5591 19.1426 12.5591C19.2848 12.5591 19.4256 12.531 19.5568 12.4763C19.6881 12.4216 19.8071 12.3415 19.9073 12.2406C19.9734 12.1735 20.0521 12.1202 20.139 12.0839C20.226 12.0475 20.3192 12.0288 20.4134 12.0288C20.5076 12.0288 20.6009 12.0475 20.6877 12.0839C20.7746 12.1202 20.8534 12.1735 20.9196 12.2406C20.9879 12.3059 21.0424 12.3845 21.0796 12.4715C21.1168 12.5585 21.136 12.6521 21.136 12.7467C21.136 12.8413 21.1168 12.935 21.0796 13.022C21.0424 13.109 20.9879 13.1875 20.9196 13.2529L19.1426 15.0621L17.3657 13.3175C17.2973 13.2521 17.2428 13.1736 17.2056 13.0866C17.1684 12.9996 17.1493 12.9059 17.1493 12.8113C17.1493 12.7167 17.1684 12.6231 17.2056 12.5361C17.2428 12.4491 17.2973 12.3705 17.3657 12.3052V12.2406Z" fill="#262626"/><path id="Vector_4" d="M21.8345 18.7024C21.5489 18.7024 21.275 18.8159 21.073 19.0178C20.871 19.2198 20.7576 19.4937 20.7576 19.7794C20.7576 22.7516 17.8606 25.164 14.296 25.164C10.7314 25.164 7.83451 22.7516 7.83451 19.7794C7.83451 19.4937 7.72105 19.2198 7.51909 19.0178C7.31713 18.8159 7.04321 18.7024 6.75759 18.7024C6.47197 18.7024 6.19806 18.8159 5.99609 19.0178C5.79413 19.2198 5.68066 19.4937 5.68066 19.7794C5.68066 23.9362 9.54682 27.3179 14.296 27.3179C19.0452 27.3179 22.9115 23.9362 22.9115 19.7794C22.9115 19.4937 22.798 19.2198 22.596 19.0178C22.3941 18.8159 22.1202 18.7024 21.8345 18.7024Z" fill="#262626"/><path id="Vector_5" d="M43.9681 22.0575H38.0576L36.8467 25.4117H33.8503L39.4326 10.7317H42.7163L48.2574 25.4117H45.179L43.9681 22.0575ZM39.0016 19.4486H43.0241L41.0128 13.8996L39.0016 19.4486Z" fill="#262626"/><path id="Vector_6" d="M55.2079 22.7615C55.7963 22.7615 56.3572 22.6718 56.8908 22.4924C57.4244 22.2991 57.8896 22.0092 58.2863 21.6227C58.6832 21.2362 58.9978 20.753 59.2305 20.1733C59.463 19.5798 59.5793 18.8827 59.5793 18.0821C59.5793 17.2815 59.463 16.5913 59.2305 16.0115C58.9978 15.418 58.6832 14.9279 58.2863 14.5415C57.9032 14.155 57.445 13.8651 56.9113 13.6718C56.3777 13.4786 55.8168 13.382 55.2284 13.382H52.9503V22.7615H55.2079ZM50.1182 25.4117V10.7317H55.3311C56.3709 10.7317 57.3286 10.8973 58.2042 11.2286C59.0799 11.5599 59.8324 12.043 60.4618 12.678C61.1049 13.2991 61.6043 14.0653 61.96 14.9763C62.3294 15.8873 62.5141 16.9226 62.5141 18.0821C62.5141 19.2416 62.3294 20.2769 61.96 21.1879C61.6043 22.0989 61.1049 22.865 60.4618 23.4861C59.8188 24.1074 59.0594 24.5836 58.1838 24.9149C57.3081 25.2461 56.3504 25.4117 55.3105 25.4117H50.1182Z" fill="#262626"/><path id="Vector_7" d="M70.0592 17.4195C70.7707 17.4195 71.3248 17.2332 71.7216 16.8604C72.1321 16.474 72.3373 15.9632 72.3373 15.3282C72.3373 14.6657 72.1321 14.1481 71.7216 13.7754C71.3248 13.4027 70.7707 13.2163 70.0592 13.2163H67.8222V17.4195H70.0592ZM67.8017 19.8835V25.4117H64.9695V10.7317H70.4081C71.1196 10.7317 71.7694 10.849 72.3578 11.0837C72.9461 11.3045 73.4524 11.622 73.8765 12.0361C74.3006 12.4364 74.6222 12.9196 74.8411 13.4855C75.0737 14.0376 75.19 14.645 75.19 15.3076C75.19 15.9701 75.0737 16.5844 74.8411 17.1504C74.6222 17.7163 74.3006 18.1994 73.8765 18.5997C73.4524 19 72.9461 19.3175 72.3578 19.5521C71.7694 19.773 71.1196 19.8835 70.4081 19.8835H67.8017Z" fill="#262626"/><path id="Vector_8" d="M77.3557 25.4117V10.7317H80.1879V22.6786H86.6732V25.4117H77.3557Z" fill="#262626"/><path id="Vector_9" d="M88.6343 25.4114V15.2245H91.3638V25.4114H88.6343ZM88.3059 11.8909C88.3059 11.4078 88.4701 11.0006 88.7985 10.6693C89.1268 10.338 89.5236 10.1724 89.9888 10.1724C90.4676 10.1724 90.8644 10.338 91.1791 10.6693C91.5075 11.0006 91.6717 11.4078 91.6717 11.8909C91.6717 12.3464 91.5075 12.7398 91.1791 13.0711C90.8644 13.4024 90.4676 13.568 89.9888 13.568C89.5236 13.568 89.1268 13.4024 88.7985 13.0711C88.4701 12.7398 88.3059 12.3464 88.3059 11.8909Z" fill="#262626"/><path id="Vector_10" d="M95.7642 22.0568C95.7915 22.4571 95.9557 22.816 96.2567 23.1335C96.5577 23.451 97.0093 23.6098 97.6112 23.6098C98.0628 23.6098 98.398 23.5132 98.6169 23.3199C98.8358 23.1129 98.9453 22.8713 98.9453 22.5952C98.9453 22.3605 98.8632 22.1604 98.699 21.9948C98.5348 21.8153 98.2544 21.6842 97.8575 21.6013L96.5236 21.2907C95.5385 21.0699 94.8202 20.6903 94.3687 20.152C93.9171 19.5998 93.6914 18.9649 93.6914 18.2471C93.6914 17.7915 93.7871 17.3637 93.9787 16.9634C94.1702 16.5492 94.4302 16.1973 94.7586 15.9073C95.1006 15.6037 95.4975 15.3622 95.9489 15.1827C96.4141 15.0033 96.9203 14.9136 97.4676 14.9136C98.1791 14.9136 98.7811 15.017 99.2737 15.2241C99.7662 15.4173 100.163 15.6658 100.464 15.9695C100.779 16.2732 101.011 16.5976 101.162 16.9426C101.312 17.2739 101.401 17.5776 101.429 17.8537L99.1505 18.3713C99.1231 18.2195 99.0753 18.0676 99.0068 17.9158C98.9521 17.7501 98.8564 17.5984 98.7196 17.4603C98.5827 17.3223 98.4117 17.2118 98.2064 17.129C98.0149 17.0462 97.7754 17.0048 97.4881 17.0048C97.1324 17.0048 96.8246 17.1014 96.5646 17.2946C96.3183 17.4879 96.1952 17.7295 96.1952 18.0193C96.1952 18.2678 96.2773 18.4679 96.4415 18.6198C96.6193 18.7717 96.8451 18.8751 97.1188 18.9304L98.5554 19.2409C99.5541 19.448 100.3 19.8345 100.792 20.4004C101.299 20.9664 101.552 21.6221 101.552 22.3674C101.552 22.7816 101.47 23.1888 101.305 23.5891C101.155 23.9894 100.915 24.3482 100.587 24.6657C100.259 24.9832 99.8483 25.2386 99.3558 25.4318C98.8632 25.6251 98.2885 25.7217 97.6318 25.7217C96.8656 25.7217 96.2226 25.6113 95.7026 25.3904C95.1827 25.1696 94.7586 24.9004 94.4302 24.5829C94.1019 24.2654 93.8556 23.9273 93.6914 23.5684C93.5408 23.1957 93.4519 22.8644 93.4246 22.5745L95.7642 22.0568Z" fill="#262626"/><path id="Vector_11" d="M107.112 15.2246H109.144V17.6678H107.112V21.9331C107.112 22.3748 107.208 22.6854 107.399 22.8648C107.605 23.0305 107.906 23.1134 108.302 23.1134C108.466 23.1134 108.631 23.1064 108.795 23.0926C108.959 23.0788 109.076 23.0581 109.144 23.0305V25.3081C109.021 25.3632 108.829 25.4185 108.569 25.4737C108.323 25.529 108.001 25.5565 107.605 25.5565C106.619 25.5565 105.84 25.2804 105.265 24.7284C104.69 24.1762 104.403 23.4032 104.403 22.4093V17.6678H102.576V15.2246H103.089C103.623 15.2246 104.013 15.0727 104.259 14.7691C104.519 14.4516 104.649 14.0651 104.649 13.6096V12.1809H107.112V15.2246Z" fill="#262626"/></g></svg>