<svg width="48" height="49" viewBox="0 0 48 49" fill="none" xmlns="http://www.w3.org/2000/svg"><path d="M0 24.5004C0 11.2456 10.7452 0.500427 24 0.500427C37.2548 0.500427 48 11.2456 48 24.5004C48 37.7553 37.2548 48.5004 24 48.5004C10.7452 48.5004 0 37.7553 0 24.5004Z" fill="#5D2DE6" fill-opacity="0.16"/><path fill-rule="evenodd" clip-rule="evenodd" d="M17.875 25.3754H22.25C22.733 25.3754 23.125 24.9834 23.125 24.5004V18.3754C23.125 17.8924 22.733 17.5004 22.25 17.5004H17.875C17.392 17.5004 17 17.8924 17 18.3754V24.5004C17 24.9834 17.392 25.3754 17.875 25.3754ZM17.875 31.5004H22.25C22.733 31.5004 23.125 31.1084 23.125 30.6254V28.0004C23.125 27.5174 22.733 27.1254 22.25 27.1254H17.875C17.392 27.1254 17 27.5174 17 28.0004V30.6254C17 31.1084 17.392 31.5004 17.875 31.5004ZM30.125 22.7504H25.75C25.267 22.7504 24.875 22.3584 24.875 21.8754V18.3754C24.875 17.8924 25.267 17.5004 25.75 17.5004H30.125C30.608 17.5004 31 17.8924 31 18.3754V21.8754C31 22.3584 30.608 22.7504 30.125 22.7504ZM25.75 31.5004H30.125C30.608 31.5004 31 31.1084 31 30.6254V25.3754C31 24.8924 30.608 24.5004 30.125 24.5004H25.75C25.267 24.5004 24.875 24.8924 24.875 25.3754V30.6254C24.875 31.1084 25.267 31.5004 25.75 31.5004Z" fill="#5D2DE6"/></svg>