<svg width="32" height="32" viewBox="0 0 32 32" fill="none" xmlns="http://www.w3.org/2000/svg"><rect y="0.000488281" width="32" height="32" rx="16" fill="#FCEED9"/><g clip-path="url(#clip0_2408_7694)"><path d="M23.1441 13.4395L18.8271 12.8115L16.9001 8.90049C16.8085 8.74296 16.6772 8.61222 16.5193 8.52134C16.3613 8.43047 16.1823 8.38264 16.0001 8.38264C15.8179 8.38264 15.6388 8.43047 15.4809 8.52134C15.323 8.61222 15.1916 8.74296 15.1001 8.90049L13.1731 12.8125L8.85608 13.4395C8.67121 13.466 8.49747 13.5438 8.35452 13.6639C8.21157 13.7841 8.10514 13.9419 8.04727 14.1195C7.9894 14.2971 7.98241 14.4873 8.02709 14.6686C8.07177 14.8499 8.16634 15.0151 8.30008 15.1455L11.4231 18.1905L10.6861 22.4905C10.6546 22.6744 10.6751 22.8634 10.7455 23.0363C10.8158 23.2091 10.933 23.3588 11.084 23.4684C11.235 23.5781 11.4136 23.6433 11.5997 23.6568C11.7858 23.6702 11.9719 23.6313 12.1371 23.5445L16.0001 21.5135L19.8611 23.5425C20.0262 23.6293 20.2124 23.6682 20.3985 23.6548C20.5846 23.6413 20.7632 23.5761 20.9142 23.4664C21.0651 23.3568 21.1824 23.2071 21.2527 23.0343C21.323 22.8614 21.3436 22.6724 21.3121 22.4885L20.5751 18.1885L23.7001 15.1455C23.8335 15.0152 23.9278 14.8503 23.9724 14.6692C24.017 14.4882 24.0102 14.2983 23.9525 14.121C23.8949 13.9436 23.7889 13.7859 23.6464 13.6657C23.5039 13.5455 23.3306 13.4675 23.1461 13.4405L23.1441 13.4395Z" fill="#BE7509"/></g><defs><clipPath id="clip0_2408_7694"><rect width="16" height="16" fill="white" transform="translate(8 8.00049)"/></clipPath></defs></svg>