<svg width="48" height="48" viewBox="0 0 48 48" fill="none" xmlns="http://www.w3.org/2000/svg"><path d="M0 24.0002C0 10.7454 10.7452 0.000244141 24 0.000244141C37.2548 0.000244141 48 10.7454 48 24.0002C48 37.2551 37.2548 48.0002 24 48.0002C10.7452 48.0002 0 37.2551 0 24.0002Z" fill="#5D2DE6" fill-opacity="0.16"/><path fill-rule="evenodd" clip-rule="evenodd" d="M30.0667 17.0002H17.9333C17.4179 17.0002 17 17.4181 17 17.9336V30.0669C17 30.5824 17.4179 31.0002 17.9333 31.0002H30.0667C30.5821 31.0002 31 30.5824 31 30.0669V17.9336C31 17.4181 30.5821 17.0002 30.0667 17.0002ZM18.75 28.3752L20.0473 25.9969C20.3583 25.4266 21.1221 25.2996 21.6009 25.7386L21.7884 25.9104C22.2118 26.2985 22.8743 26.251 23.2381 25.8065L24.6113 24.1281C25.0262 23.621 25.8086 23.6433 26.194 24.1732L29.25 28.3752H18.75ZM22.25 20.9377C22.25 21.6626 21.6624 22.2502 20.9375 22.2502C20.2126 22.2502 19.625 21.6626 19.625 20.9377C19.625 20.2129 20.2126 19.6252 20.9375 19.6252C21.6624 19.6252 22.25 20.2129 22.25 20.9377Z" fill="#5D2DE6"/></svg>