<svg xmlns="http://www.w3.org/2000/svg" width="1em" height="1em" viewBox="0 0 20 21" fill="none" class="w-5 h-5 cursor-pointer  fill-gray-666 hover:fill-black transition-all duration-200"><g clip-path="url(#prefix__clip0_3714_3752)"><path d="M10 .5C4.477.5 0 4.977 0 10.5c0 4.69 3.229 8.625 7.584 9.706v-6.65H5.522V10.5h2.062V9.183c0-3.403 1.54-4.981 4.882-4.981.634 0 1.727.124 2.174.248v2.77a12.853 12.853 0 00-1.155-.037c-1.64 0-2.273.621-2.273 2.236V10.5h3.266l-.56 3.056h-2.706v6.87C16.164 19.83 20 15.614 20 10.5c0-5.523-4.477-10-10-10z"/></g><defs><clipPath id="prefix__clip0_3714_3752"><path fill="#fff" transform="translate(0 .5)" d="M0 0h20v20H0z"/></clipPath></defs></svg>