<svg width="41" height="40" viewBox="0 0 41 40" fill="none" xmlns="http://www.w3.org/2000/svg"><g id="webdesigner depot"><path id="Vector" fill-rule="evenodd" clip-rule="evenodd" d="M20.7135 0C31.7518 0 40.7135 8.9617 40.7135 20C40.7135 31.0383 31.7518 40 20.7135 40C9.6752 40 0.713501 31.0383 0.713501 20C0.713501 8.9617 9.6752 0 20.7135 0ZM24.3363 13.6423C23.654 12.6016 22.6946 11.8067 21.3396 11.6311C19.8591 11.4389 18.3907 12.0772 17.5225 13.2911L16.633 14.5316L24.1369 27.4072C24.9035 28.5005 26.5046 28.5572 27.3802 27.7323C27.5702 27.5733 27.9446 27.1656 28.0751 26.9256L30.0446 23.3444L24.3363 13.6423ZM11.2802 11.1305C12.773 11.0877 14.1679 11.8733 14.9079 13.1705L20.5379 22.8917L17.6691 26.8451C17.0596 27.6256 16.1774 28.1805 15.3185 28.0217C14.6068 27.9244 14.0491 27.6872 13.5463 26.9023L7.89244 17.2161C6.34297 14.56 8.20579 11.2139 11.2802 11.1305ZM30.4835 22.55L33.4985 17.06C34.9769 14.3611 33.0241 11.0667 29.9468 11.0667C28.4524 11.0667 27.0812 11.8895 26.3763 13.2061L25.7712 14.3351L30.4835 22.55Z" fill="#262626"/></g></svg>