<svg width="24" height="24" viewBox="0 0 24 24" fill="none" xmlns="http://www.w3.org/2000/svg"><g id="Google_Chrome_icon_(February_2022) 1" clip-path="url(#clip0_2408_7551)"><path id="Vector" d="M12 17.9973C15.3137 17.9973 18 15.311 18 11.9973C18 8.68361 15.3137 5.99731 12 5.99731C8.68629 5.99731 6 8.68361 6 11.9973C6 15.311 8.68629 17.9973 12 17.9973Z" fill="white"/><path id="Vector_2" d="M12 6.00002H22.3906C21.3377 4.17571 19.823 2.66077 17.9989 1.60752C16.1748 0.554277 14.1055 -0.000146935 11.9992 2.92099e-08C9.89285 0.000146994 7.82366 0.55486 5.9997 1.60836C4.17574 2.66186 2.66129 4.17702 1.60864 6.00147L6.80394 15L6.80859 14.9988C6.28009 14.0875 6.00119 13.0529 6.00001 11.9994C5.99883 10.9458 6.2754 9.91062 6.80185 8.99807C7.3283 8.08552 8.08602 7.32789 8.99863 6.80153C9.91123 6.27518 10.9465 5.99872 12 6.00002Z" fill="url(#paint0_linear_2408_7551)"/><path id="Vector_3" d="M12 16.75C14.6234 16.75 16.75 14.6234 16.75 12C16.75 9.37665 14.6234 7.25 12 7.25C9.37665 7.25 7.25 9.37665 7.25 12C7.25 14.6234 9.37665 16.75 12 16.75Z" fill="#1A73E8"/><path id="Vector_4" d="M17.1957 15.0014L12.0004 23.9999C14.1068 24.0002 16.1761 23.4459 18.0003 22.3928C19.8244 21.3397 21.3392 19.8249 22.3922 18.0007C23.4453 16.1764 23.9995 14.1071 23.9991 12.0008C23.9987 9.89443 23.4438 7.82531 22.3901 6.00146H11.9995L11.9983 6.00611C13.0518 6.00408 14.0872 6.27983 15.0002 6.80556C15.9132 7.33128 16.6714 8.08841 17.1985 9.00061C17.7256 9.9128 18.0028 10.9478 18.0023 12.0014C18.0019 13.0549 17.7236 14.0897 17.1957 15.0014Z" fill="url(#paint1_linear_2408_7551)"/><path id="Vector_5" d="M6.80419 15.0015L1.60889 6.00293C0.555454 7.82693 0.000810927 9.89613 0.00073243 12.0025C0.000653933 14.1088 0.555143 16.1781 1.60844 18.0022C2.66175 19.8262 4.17673 21.3408 6.00107 22.3937C7.82541 23.4465 9.89479 24.0005 12.0011 23.9999L17.1964 15.0014L17.1931 14.998C16.6681 15.9114 15.9115 16.6702 14.9998 17.198C14.088 17.7258 13.0532 18.0038 11.9997 18.0042C10.9461 18.0046 9.91114 17.7272 8.999 17.2C8.08686 16.6728 7.32982 15.9145 6.80419 15.0015Z" fill="url(#paint2_linear_2408_7551)"/></g><defs><linearGradient id="paint0_linear_2408_7551" x1="1.60864" y1="7.50002" x2="22.3906" y2="7.50002" gradientUnits="userSpaceOnUse"><stop stop-color="#D93025"/><stop offset="1" stop-color="#EA4335"/></linearGradient><linearGradient id="paint1_linear_2408_7551" x1="10.361" y1="23.8395" x2="20.752" y2="5.84176" gradientUnits="userSpaceOnUse"><stop stop-color="#FCC934"/><stop offset="1" stop-color="#FBBC04"/></linearGradient><linearGradient id="paint2_linear_2408_7551" x1="13.2989" y1="23.2507" x2="2.90794" y2="5.25293" gradientUnits="userSpaceOnUse"><stop stop-color="#1E8E3E"/><stop offset="1" stop-color="#34A853"/></linearGradient><clipPath id="clip0_2408_7551"><rect width="24" height="24" fill="white"/></clipPath></defs></svg>