<svg width="126" height="24" viewBox="0 0 126 24" fill="none" xmlns="http://www.w3.org/2000/svg"><g id="awwwards"><path id="logo-a1" d="M0.535714 10.1251C0.982143 7.80368 3.03571 6.19653 5.89286 6.19653C9.19643 6.19653 11.7857 7.6251 11.7857 12.0894V20.393H8.92857L8.57143 18.6072C7.58929 19.8572 6.25 20.6608 4.28571 20.6608C1.875 20.6608 0 19.143 0 16.3751C0 13.6072 2.5 11.8215 5.98214 11.8215H8.30357V11.1965C8.30357 9.58939 7.14286 9.14296 5.80357 9.14296C4.82143 9.14296 3.83929 9.5001 3.39286 10.7501L0.535714 10.1251ZM5.08929 17.7144C6.69643 17.7144 8.30357 16.643 8.30357 14.8572V14.5894H6.07143C4.55357 14.5001 3.66071 15.1251 3.66071 16.3751C3.66071 17.0001 4.19643 17.7144 5.08929 17.7144Z" fill="#262626"/><path id="logo-a2" d="M67.857 10.1251C68.3034 7.80368 70.357 6.19653 73.2141 6.19653C76.5177 6.19653 79.107 7.6251 79.107 12.0894V20.393H76.2499L75.8927 18.6072C74.9106 19.8572 73.5713 20.6608 71.607 20.6608C69.1963 20.6608 67.3213 19.143 67.3213 16.3751C67.3213 13.6072 69.8213 11.8215 73.3034 11.8215H75.6249V11.1965C75.6249 9.58939 74.4641 9.14296 73.1249 9.14296C72.1427 9.14296 71.1606 9.5001 70.7141 10.7501L67.857 10.1251ZM72.4106 17.7144C74.0177 17.7144 75.6249 16.643 75.6249 14.8572V14.5894H73.3034C71.7856 14.5894 70.8927 15.1251 70.8927 16.3751C70.982 17.0001 71.5177 17.7144 72.4106 17.7144Z" fill="#262626"/><path id="logo-r" d="M82.2322 20.4822V6.3751H85.7143V8.69653C86.6965 7.0001 88.3036 6.19653 89.8215 6.19653C90.4465 6.19653 90.9822 6.28582 91.5179 6.46439L90.8929 9.67868C90.4465 9.41082 90 9.23225 89.4643 9.23225C87.4107 9.23225 85.7143 10.9287 85.7143 15.393V20.393L82.2322 20.4822Z" fill="#262626"/><path id="logo-d" d="M98.9286 6.19643C100.357 6.19643 101.696 6.91071 102.321 7.71429V0.75H105.804V20.4821H102.321V19.0536C101.875 19.7679 100.625 20.75 98.9286 20.75C94.7322 20.75 92.5894 17.8036 92.5894 13.5179C92.5894 9.23214 94.7322 6.19643 98.9286 6.19643ZM99.4644 17.7143C101.25 17.7143 102.679 16.1964 102.679 13.4286C102.679 10.6607 101.25 9.14286 99.4644 9.14286C97.6786 9.14286 96.2501 10.6607 96.2501 13.4286C96.2501 16.1964 97.6786 17.7143 99.4644 17.7143Z" fill="#262626"/><path id="logo-s" d="M118.304 8.42854L116.25 10.3035C115.625 9.41068 114.643 9.05354 113.929 9.05354C113.214 9.05354 112.589 9.49997 112.589 10.2143C112.589 10.8393 113.125 11.2857 113.929 11.5535C115.893 12.2678 119.018 12.8928 119.018 15.8393C119.018 18.4285 117.054 20.4821 114.018 20.4821C111.071 20.4821 109.107 18.4285 108.482 16.7321L111.25 15.2143C111.786 16.5535 112.679 17.5357 114.107 17.5357C115.179 17.5357 115.893 17 115.893 16.0178C115.893 14.8571 114.107 14.5893 112.411 13.875C110.893 13.25 109.554 12.2678 109.554 10.125C109.554 7.98211 111.339 6.01782 114.018 6.01782C115.804 6.10711 117.5 7.08925 118.304 8.42854Z" fill="#262626"/><path id="logo-w2" d="M46.3394 6.375L43.8394 16.1071L41.4286 6.375H38.2144L35.8929 16.1071L33.9286 10.4821L33.6608 11.1071L32.5894 14.7679L34.3751 20.4821H37.4108L39.8215 11.375L42.2322 20.4821H45.3572L49.8215 6.375H46.3394Z" fill="#262626"/><path id="logo-w3" d="M63.0358 6.375L60.5358 16.1071L58.1251 6.375H54.9108L52.5894 16.1071L50.6251 10.4821L50.3573 11.1071L49.1965 14.7679L51.0715 20.4821H54.1072L56.518 11.375L58.9287 20.4821H61.9644L66.518 6.375H63.0358Z" fill="#262626"/><path id="logo-w1" d="M33.1249 6.375L28.6606 20.3929H25.6249L23.2142 11.375L20.8035 20.4821H17.7678L13.3035 6.46429H16.7856L19.2856 16.1071L21.6963 6.46429H24.9106L27.3213 16.1071L29.8213 6.46429L33.1249 6.375Z" fill="#262626"/><path id="logo-p" d="M123.571 15.9285C124.91 15.9285 125.893 16.9106 125.893 18.2499C125.893 19.5892 124.91 20.5713 123.571 20.5713C122.232 20.5713 121.25 19.5892 121.25 18.2499C121.25 16.9106 122.232 15.9285 123.571 15.9285Z" fill="#262626"/></g></svg>