<svg width="38" height="44" viewBox="0 0 38 44" fill="none" xmlns="http://www.w3.org/2000/svg"><g id="flux"><mask id="mask0_2408_7597" maskUnits="userSpaceOnUse" x="0" y="0" width="38" height="44"><g id="clip0_308_34885"><path id="Vector" d="M37.5569 0H0.797363V44H37.5569V0Z" fill="white"/></g></mask><g mask="url(#mask0_2408_7597)"><g id="Group"><path id="Vector_2" d="M8.85781 7.90988V12.1499H14.0903V14.9061H8.85781V31.6444H5.88745V5.08496H14.0163V7.90988H8.85781Z" fill="#262626"/><path id="Vector_3" d="M10.7651 31.5704V16.5271H13.8042V28.8141H17.4827V31.639H10.7651V31.5704Z" fill="#262626"/><path id="Vector_4" d="M19.6022 27.5415C17.4828 27.5415 15.9236 26.4802 15.9236 24.0829C15.9236 23.9404 15.9236 5.08475 15.9236 5.08475H18.894V24.0143C18.894 24.7219 19.1054 24.9331 19.5282 24.9331C19.9511 24.9331 20.0937 24.7219 20.0937 24.0143C20.0937 23.5919 20.0937 5.01611 20.0937 5.01611H23.0641V24.0143C23.0641 26.2742 21.7903 27.5415 19.6022 27.5415Z" fill="#262626"/><path id="Vector_5" d="M27.2341 31.6389H24.0522L26.6685 22.5992L24.3377 14.5469H27.4507L28.4391 18.9242L29.4274 14.5469H32.3978L29.9243 23.3067L32.3291 31.6389H29.216L28.2277 27.0504L27.2341 31.6389Z" fill="#262626"/><path id="Vector_6" d="M32.4668 5.08496H24.2693V7.90988H32.3982V5.08496H32.4668Z" fill="#262626"/><path id="Vector_7" d="M22.8534 28.7454H18.9634V31.5703H22.8534V28.7454Z" fill="#262626"/><path id="Vector_8" d="M32.4668 9.81592H24.2693V12.6408H32.3982V9.81592H32.4668Z" fill="#262626"/><path id="Vector_9" d="M37.5569 36.7238H0.797363V0H37.5569V36.7238ZM3.76772 33.7564H34.5918V2.96748H3.76772V33.7564Z" fill="#262626"/><path id="Vector_10" d="M4.12184 43.1497H2.21383L1.92843 43.7833H0.797363L2.35126 39.6172H3.90514L5.53302 43.7833H4.33325L4.12184 43.1497ZM3.83643 42.3735L3.2709 40.7472H3.05948L2.49396 42.3735H3.83643Z" fill="#262626"/><path id="Vector_11" d="M6.09839 41.7399C6.09839 40.3988 7.01804 39.5486 8.36052 39.5486C9.28016 39.5486 10.2685 39.971 10.4799 41.2435H9.41754C9.27488 40.7472 8.85205 40.536 8.35523 40.536C7.72099 40.536 7.15545 41.0323 7.15545 41.8085C7.15545 42.5847 7.65228 43.0811 8.35523 43.0811C8.85205 43.0811 9.20617 42.8698 9.41754 42.3049H10.4799C10.2685 43.5774 9.34889 43.9998 8.36052 43.9998C7.08675 43.9259 6.09839 43.0811 6.09839 41.7399Z" fill="#262626"/><path id="Vector_12" d="M14.5814 43.1497H12.5994L12.388 43.7833H11.2622L12.8161 39.6172H14.37L15.9239 43.7833H14.7928L14.5814 43.1497ZM14.3013 42.3735L13.7358 40.7472H13.5244L12.8901 42.3735H14.3013Z" fill="#262626"/><path id="Vector_13" d="M21.2259 41.7401C21.2259 42.9388 20.5916 43.7888 18.9637 43.7888H16.9817V39.6228H18.9637C20.5916 39.6914 21.2259 40.5362 21.2259 41.7401ZM20.0948 41.7401C20.0948 40.9639 19.672 40.6102 18.9637 40.6102H18.1128V42.8701H18.9637C19.672 42.8701 20.0948 42.5164 20.0948 41.7401Z" fill="#262626"/><path id="Vector_14" d="M22.356 39.6914H25.8918V40.6101H23.4183V41.3864H25.7491V42.1625H23.4183V42.9387H25.8918V43.7888H22.356V39.6914Z" fill="#262626"/><path id="Vector_15" d="M27.1655 39.6914H28.5821L29.5016 42.3737H29.5704L30.49 39.6914H31.9065V43.7888H30.8441V41.5289H30.7754L29.9985 43.7888H29.1475L28.3706 41.5289H28.3019V43.7888H27.2396V39.6914H27.1655Z" fill="#262626"/><path id="Vector_16" d="M35.7912 42.5163V43.7888H34.6602V42.4477L32.9636 39.6228H34.1634L35.2257 41.3864H35.2944L36.3568 39.6228H37.5565L35.7912 42.5163Z" fill="#262626"/></g></g></g></svg>