<svg xmlns="http://www.w3.org/2000/svg" width="1em" height="1em" viewBox="0 0 20 21" fill="none" class="w-5 h-5 cursor-pointer  fill-gray-666 hover:fill-black transition-all duration-200"><g clip-path="url(#prefix__clip0_3714_3744)"><path d="M18.52.5H1.477C.66.5 0 1.145 0 1.941v17.114c0 .797.66 1.445 1.477 1.445H18.52c.816 0 1.48-.648 1.48-1.441V1.94C20 1.145 19.336.5 18.52.5zM5.934 17.543h-2.97V7.996h2.97v9.547zM4.449 6.695a1.72 1.72 0 11-.006-3.439 1.72 1.72 0 01.006 3.44zm12.594 10.848h-2.965v-4.64c0-1.106-.02-2.532-1.543-2.532-1.543 0-1.777 1.207-1.777 2.453v4.719H7.797V7.996h2.844v1.305h.039c.394-.75 1.363-1.543 2.804-1.543 3.004 0 3.559 1.976 3.559 4.547v5.238z"/></g><defs><clipPath id="prefix__clip0_3714_3744"><path fill="#fff" transform="translate(0 .5)" d="M0 0h20v20H0z"/></clipPath></defs></svg>