<svg width="130" height="32" viewBox="0 0 130 32" fill="none" xmlns="http://www.w3.org/2000/svg"><g id="Group 20"><g id="Group 19"><g id="Memorisely"><path id="Vector" d="M122.24 25.8909C121.969 25.8909 121.723 25.8686 121.501 25.8242C121.278 25.7838 121.113 25.7393 121.004 25.6909L121.44 24.206C121.771 24.2949 122.066 24.3333 122.325 24.3211C122.583 24.309 122.812 24.212 123.01 24.0302C123.212 23.8484 123.389 23.5514 123.543 23.1393L123.767 22.5211L120.361 13.0906H122.301L124.658 20.315H124.755L127.113 13.0906H129.058L125.222 23.6423C125.044 24.1272 124.818 24.5373 124.543 24.8727C124.268 25.2121 123.941 25.4666 123.561 25.6363C123.181 25.806 122.741 25.8909 122.24 25.8909Z" fill="#262626"/><path id="Vector_2" d="M119.169 9.98755V22.4H117.356V9.98755H119.169Z" fill="#262626"/><path id="Vector_3" d="M111.864 22.5876C110.946 22.5876 110.156 22.3917 109.494 21.9997C108.835 21.6038 108.326 21.0482 107.966 20.333C107.611 19.6138 107.433 18.7714 107.433 17.8057C107.433 16.8522 107.611 16.0117 107.966 15.2844C108.326 14.5572 108.827 13.9895 109.47 13.5814C110.116 13.1733 110.872 12.9692 111.736 12.9692C112.261 12.9692 112.771 13.0561 113.264 13.2299C113.756 13.4036 114.199 13.6763 114.591 14.0481C114.983 14.4198 115.292 14.9026 115.518 15.4966C115.744 16.0865 115.858 16.8037 115.858 17.6481V18.2906H108.457V16.933H114.082C114.082 16.4562 113.985 16.034 113.791 15.6663C113.597 15.2945 113.324 15.0016 112.973 14.7875C112.625 14.5733 112.217 14.4662 111.748 14.4662C111.239 14.4662 110.795 14.5915 110.415 14.842C110.039 15.0885 109.748 15.4117 109.542 15.8117C109.34 16.2077 109.239 16.638 109.239 17.1027V18.1633C109.239 18.7855 109.348 19.3148 109.566 19.7512C109.789 20.1876 110.098 20.5209 110.494 20.7512C110.89 20.9775 111.352 21.0906 111.882 21.0906C112.225 21.0906 112.538 21.0421 112.821 20.9452C113.104 20.8442 113.348 20.6947 113.554 20.4967C113.761 20.2987 113.918 20.0542 114.027 19.7633L115.742 20.0724C115.605 20.5775 115.359 21.0199 115.003 21.3997C114.651 21.7755 114.209 22.0684 113.676 22.2785C113.146 22.4846 112.542 22.5876 111.864 22.5876Z" fill="#262626"/><path id="Vector_4" d="M106.189 15.3632L104.547 15.6541C104.478 15.444 104.369 15.244 104.22 15.0541C104.074 14.8642 103.876 14.7087 103.626 14.5875C103.375 14.4662 103.062 14.4056 102.686 14.4056C102.173 14.4056 101.745 14.5208 101.401 14.7511C101.058 14.9774 100.886 15.2703 100.886 15.6299C100.886 15.941 101.001 16.1915 101.232 16.3814C101.462 16.5713 101.834 16.7269 102.347 16.8481L103.826 17.1875C104.682 17.3855 105.321 17.6906 105.741 18.1027C106.161 18.5148 106.371 19.0502 106.371 19.7088C106.371 20.2664 106.21 20.7634 105.886 21.1997C105.567 21.6321 105.121 21.9715 104.547 22.2179C103.977 22.4644 103.317 22.5876 102.565 22.5876C101.523 22.5876 100.672 22.3654 100.013 21.921C99.3548 21.4725 98.9508 20.8361 98.8013 20.0118L100.553 19.7451C100.662 20.2017 100.886 20.5472 101.226 20.7815C101.565 21.0118 102.007 21.127 102.553 21.127C103.147 21.127 103.622 21.0038 103.977 20.7573C104.333 20.5068 104.51 20.2017 104.51 19.8421C104.51 19.5512 104.401 19.3068 104.183 19.1088C103.969 18.9108 103.64 18.7613 103.195 18.6603L101.62 18.3148C100.751 18.1168 100.108 17.8017 99.6922 17.3693C99.2801 16.937 99.074 16.3895 99.074 15.7269C99.074 15.1774 99.2275 14.6965 99.5346 14.2844C99.8417 13.8723 100.266 13.5511 100.807 13.3208C101.349 13.0864 101.969 12.9692 102.668 12.9692C103.674 12.9692 104.466 13.1874 105.044 13.6238C105.622 14.0561 106.003 14.6359 106.189 15.3632Z" fill="#262626"/><path id="Vector_5" d="M95.4752 22.3999V13.0906H97.2873V22.3999H95.4752ZM96.3904 11.6542C96.0752 11.6542 95.8045 11.5491 95.5782 11.339C95.356 11.1249 95.2449 10.8703 95.2449 10.5754C95.2449 10.2764 95.356 10.0218 95.5782 9.8117C95.8045 9.59755 96.0752 9.49048 96.3904 9.49048C96.7055 9.49048 96.9742 9.59755 97.1964 9.8117C97.4227 10.0218 97.5358 10.2764 97.5358 10.5754C97.5358 10.8703 97.4227 11.1249 97.1964 11.339C96.9742 11.5491 96.7055 11.6542 96.3904 11.6542Z" fill="#262626"/><path id="Vector_6" d="M89.4373 22.3999V13.0906H91.1888V14.5694H91.2858C91.4555 14.0684 91.7545 13.6744 92.1828 13.3875C92.6151 13.0966 93.104 12.9512 93.6495 12.9512C93.7626 12.9512 93.8959 12.9552 94.0495 12.9633C94.2071 12.9714 94.3303 12.9815 94.4192 12.9936V14.727C94.3465 14.7068 94.2172 14.6845 94.0313 14.6603C93.8454 14.632 93.6596 14.6179 93.4737 14.6179C93.0454 14.6179 92.6636 14.7088 92.3282 14.8906C91.9969 15.0684 91.7343 15.3169 91.5403 15.6361C91.3464 15.9512 91.2494 16.3108 91.2494 16.7149V22.3999H89.4373Z" fill="#262626"/><path id="Vector_7" d="M83.5868 22.5876C82.7141 22.5876 81.9524 22.3876 81.3019 21.9876C80.6514 21.5876 80.1463 21.028 79.7867 20.3088C79.4271 19.5896 79.2473 18.7492 79.2473 17.7875C79.2473 16.8219 79.4271 15.9774 79.7867 15.2541C80.1463 14.5309 80.6514 13.9693 81.3019 13.5693C81.9524 13.1692 82.7141 12.9692 83.5868 12.9692C84.4596 12.9692 85.2212 13.1692 85.8717 13.5693C86.5222 13.9693 87.0273 14.5309 87.3869 15.2541C87.7465 15.9774 87.9263 16.8219 87.9263 17.7875C87.9263 18.7492 87.7465 19.5896 87.3869 20.3088C87.0273 21.028 86.5222 21.5876 85.8717 21.9876C85.2212 22.3876 84.4596 22.5876 83.5868 22.5876ZM83.5929 21.0664C84.1585 21.0664 84.6272 20.9169 84.999 20.6179C85.3707 20.3189 85.6454 19.9209 85.8232 19.4239C86.005 18.9269 86.096 18.3795 86.096 17.7815C86.096 17.1875 86.005 16.642 85.8232 16.1451C85.6454 15.644 85.3707 15.242 84.999 14.939C84.6272 14.6359 84.1585 14.4844 83.5929 14.4844C83.0232 14.4844 82.5504 14.6359 82.1747 14.939C81.8029 15.242 81.5262 15.644 81.3443 16.1451C81.1665 16.642 81.0777 17.1875 81.0777 17.7815C81.0777 18.3795 81.1665 18.9269 81.3443 19.4239C81.5262 19.9209 81.8029 20.3189 82.1747 20.6179C82.5504 20.9169 83.0232 21.0664 83.5929 21.0664Z" fill="#262626"/><path id="Vector_8" d="M65.094 22.3998V13.0905H66.8334V14.6056H66.9486C67.1425 14.0925 67.4597 13.6925 67.9001 13.4056C68.3405 13.1147 68.8678 12.9692 69.482 12.9692C70.1042 12.9692 70.6254 13.1147 71.0456 13.4056C71.4699 13.6965 71.783 14.0965 71.9851 14.6056H72.082C72.3043 14.1087 72.6578 13.7127 73.1427 13.4177C73.6275 13.1187 74.2053 12.9692 74.876 12.9692C75.7205 12.9692 76.4094 13.2339 76.9427 13.7632C77.4801 14.2925 77.7488 15.0905 77.7488 16.1572V22.3998H75.9367V16.3269C75.9367 15.6966 75.7649 15.24 75.4215 14.9572C75.0781 14.6743 74.6679 14.5329 74.1912 14.5329C73.6013 14.5329 73.1427 14.7147 72.8154 15.0784C72.4881 15.438 72.3245 15.9006 72.3245 16.4663V22.3998H70.5184V16.2117C70.5184 15.7067 70.3608 15.3006 70.0456 14.9935C69.7305 14.6864 69.3204 14.5329 68.8153 14.5329C68.4718 14.5329 68.1547 14.6238 67.8638 14.8056C67.5769 14.9834 67.3446 15.2319 67.1668 15.5511C66.993 15.8703 66.9062 16.24 66.9062 16.6602V22.3998H65.094Z" fill="#262626"/><path id="Vector_9" d="M59.6013 22.5876C58.6841 22.5876 57.8942 22.3917 57.2316 21.9997C56.573 21.6038 56.0638 21.0482 55.7042 20.333C55.3487 19.6138 55.1709 18.7714 55.1709 17.8057C55.1709 16.8522 55.3487 16.0117 55.7042 15.2844C56.0638 14.5572 56.5649 13.9895 57.2073 13.5814C57.8538 13.1733 58.6094 12.9692 59.474 12.9692C59.9993 12.9692 60.5084 13.0561 61.0013 13.2299C61.4943 13.4036 61.9367 13.6763 62.3286 14.0481C62.7206 14.4198 63.0297 14.9026 63.2559 15.4966C63.4822 16.0865 63.5953 16.8037 63.5953 17.6481V18.2906H56.1952V16.933H61.8195C61.8195 16.4562 61.7226 16.034 61.5286 15.6663C61.3347 15.2945 61.0619 15.0016 60.7104 14.7875C60.3629 14.5733 59.9548 14.4662 59.4861 14.4662C58.977 14.4662 58.5326 14.5915 58.1528 14.842C57.777 15.0885 57.4861 15.4117 57.28 15.8117C57.078 16.2077 56.977 16.638 56.977 17.1027V18.1633C56.977 18.7855 57.0861 19.3148 57.3043 19.7512C57.5265 20.1876 57.8356 20.5209 58.2316 20.7512C58.6275 20.9775 59.0902 21.0906 59.6195 21.0906C59.9629 21.0906 60.2761 21.0421 60.5589 20.9452C60.8417 20.8442 61.0862 20.6947 61.2922 20.4967C61.4983 20.2987 61.6559 20.0542 61.765 19.7633L63.4802 20.0724C63.3428 20.5775 63.0963 21.0199 62.7408 21.3997C62.3892 21.7755 61.9468 22.0684 61.4135 22.2785C60.8842 22.4846 60.2801 22.5876 59.6013 22.5876Z" fill="#262626"/><path id="Vector_10" d="M40.9294 9.98755H43.2022L47.1538 19.6363H47.2993L51.2509 9.98755H53.5237V22.4H51.7418V13.4179H51.6267L47.966 22.3818H46.4871L42.8265 13.4119H42.7113V22.4H40.9294V9.98755Z" fill="#262626"/></g></g><g id="Group 19_2"><path id="Vector_11" d="M30.53 8.95715C30.2419 8.95715 29.9661 9.01538 29.7025 9.12877L24.1157 11.5284L19.1174 1.19448C18.6301 0.177023 17.4379 -0.273476 16.396 0.170894L1.91873 6.39513C1.55404 6.55449 1.25984 6.80579 1.04531 7.10612C0.787887 7.35742 0.631592 7.70679 0.631592 8.07761V20.9704C0.631592 22.135 1.57549 23.082 2.73392 23.082C3.01893 23.082 3.29781 23.0237 3.56443 22.9103L8.287 20.8724C8.37894 20.8479 8.47088 20.8203 8.55975 20.7804L14.0883 18.4452V29.8885C14.0883 31.053 15.0322 32 16.1906 32C16.4726 32 16.7484 31.9448 17.0089 31.8345L31.1889 25.8156C32.0684 25.4387 32.6354 24.5744 32.6323 23.6213V11.0656C32.6323 9.90105 31.6884 8.95408 30.53 8.95408V8.95715ZM8.25942 18.105L3.66863 8.44842L16.9905 2.72372L21.6886 12.4355L8.25636 18.105H8.25942ZM30.0519 23.4957L16.6687 29.1744V17.5381L30.0519 11.7858V23.4957Z" fill="#262626"/></g></g></svg>