<svg xmlns="http://www.w3.org/2000/svg" width="48" height="48" viewBox="0 0 48 48" fill="none"><path d="M0 24C0 10.745 10.745 0 24 0s24 10.745 24 24-10.745 24-24 24S0 37.255 0 24z" fill="#5D2DE6" fill-opacity="0.16"/><g clip-path="url(#prefix__clip0_3644_39451)" fill="#5D2DE6"><path d="M18.763 26.356l-2.191 2.192a1.237 1.237 0 00-.288.44c-.448.776-.376 1.775.288 2.44.4.399.92.59 1.44.59.351 0 .687-.119 1-.303.16-.064.311-.168.44-.288l2.19-2.191c.52-.52.52-1.368 0-1.888l-.991-.992a1.323 1.323 0 00-1.888 0z"/><path d="M19.763 25.356l-2.191 2.192a1.237 1.237 0 00-.288.44c-.448.776-.376 1.775.288 2.44.4.399.92.59 1.44.59.351 0 .687-.119 1-.303.16-.064.311-.168.44-.288l2.19-2.191c.52-.52.52-1.368 0-1.888l-.991-.992a1.323 1.323 0 00-1.888 0zM31 21.814c.648-.648 1-1.504 1-2.416 0-.912-.352-1.767-1-2.407-1.287-1.288-3.535-1.288-4.822 0l-2.016 2.015-1.16-1.16c-.503-.503-1.383-.503-1.887 0L19.69 19.27c-.52.52-.52 1.368 0 1.888l3.567 3.567 3.567 3.567c.264.264.6.392.944.392s.68-.128.944-.392l1.424-1.424c.247-.248.392-.592.392-.944 0-.351-.145-.695-.392-.943l-1.16-1.16L31 21.813z"/></g><defs><clipPath id="prefix__clip0_3644_39451"><path fill="#fff" transform="translate(16 16)" d="M0 0h16v16H0z"/></clipPath></defs></svg>