<svg width="124" height="30" viewBox="0 0 124 30" fill="none" xmlns="http://www.w3.org/2000/svg"><g id="domestika"><path id="domestika_2" d="M50.262 24.119H61.8335V20.9286H53.5001V17.6429H60.262V14.4524H53.5001V11.1667H61.8335V7.97619H50.262V24.119ZM57.8811 5.92857L59.9763 3.11905L58.2144 0.5L56.0239 3.45238L53.8335 0.5L52.0716 3.11905L54.1668 5.92857H57.8811ZM90.0716 7.92857H93.3573V24.1667H90.0716V7.92857ZM74.7859 11.2143H79.9287V24.119H83.262V11.2143H88.4049V7.92857H74.8335V11.2143H74.7859ZM117.5 7.92857H113.976L108.214 24.1667H111.643L112.881 20.7381H118.643L119.881 24.1667H123.31L117.5 7.92857ZM113.976 17.5L115.738 12.5952L117.5 17.5H113.976ZM23.643 7.69048C19.0239 7.69048 15.262 11.4524 15.262 16.0714C15.262 20.6905 19.0239 24.4524 23.643 24.4524C28.262 24.4524 32.0239 20.6905 32.0239 16.0714C32.0239 11.4524 28.262 7.69048 23.643 7.69048ZM23.643 21.0238C20.8811 21.0238 18.643 18.7857 18.643 16.0714C18.643 13.3571 20.8811 11.119 23.643 11.119C26.4049 11.119 28.643 13.3571 28.643 16.0714C28.5954 18.7857 26.3573 21.0238 23.643 21.0238ZM6.26204 7.88095H0.452515V24.0714H6.26204C10.7382 24.0714 14.4049 20.4524 14.4049 15.9762C14.3573 11.5 10.7382 7.88095 6.26204 7.88095ZM6.26204 20.7857H3.69061V11.2619H6.26204C8.88109 11.2619 11.0716 13.4048 11.0716 16.0238C11.0716 18.6429 8.92871 20.7857 6.26204 20.7857ZM40.8811 15.5476L36.7382 7.92857H33.0239V24.1667H36.3097V13.9286L40.8811 22.3095L45.4525 13.9286V24.1667H48.7858V7.92857H45.0716L40.8811 15.5476ZM107.976 7.92857H103.976L98.5954 15.0714V7.92857H95.3573V24.1667H98.5954V20.6429L100.214 18.4524L104.024 24.119H108.024L102.262 15.5952L107.976 7.92857ZM71.6906 15.4524C70.4525 14.7857 69.4525 14.5 68.5954 14.3095C67.7859 14.119 67.1668 13.9762 66.643 13.5476C66.4049 13.3095 65.8811 12.4048 66.5001 11.5952C66.8811 11.119 67.5954 10.7857 68.4049 10.7857C69.1668 10.7857 69.8335 11.0714 70.262 11.5C70.7859 12.0714 71.0239 12.5476 71.0239 12.5476L71.1192 12.7381L74.1668 11.5V11.4524C74.0716 11.1667 73.6906 10.0238 72.4049 8.92857C71.4049 8.07143 69.9763 7.59524 68.5001 7.59524C66.643 7.59524 65.0239 8.26191 64.0239 9.45238C62.9763 10.6905 62.5954 12.1667 62.9287 13.5952C63.262 15.0238 64.262 16.1667 65.643 16.8333C66.7382 17.3571 67.4049 17.5 68.0716 17.6905C68.5954 17.8333 69.1192 17.9762 69.8335 18.2619C70.5954 18.5952 70.9763 19.119 70.8811 19.7381C70.7382 20.6429 69.7382 21.2143 68.9287 21.2619H68.5954C67.5954 21.2619 66.262 20.9286 65.5954 19.4048L62.5478 20.6905C62.7859 21.2143 63.3097 22.4524 64.6906 23.3571C65.7382 24.0714 67.1668 24.5 68.5954 24.5C71.0239 24.5 73.0239 23.4048 73.9287 21.5C74.8811 19.2619 74.0716 16.7857 71.6906 15.4524Z" fill="#262626"/></g></svg>